<svg width="39" height="39" viewBox="0 0 39 39" fill="none" xmlns="http://www.w3.org/2000/svg">
<g clip-path="url(#clip0)">
<path d="M17.8745 37.3494C8.01922 37.3494 0 29.3304 0 19.4751C0 9.61981 8.01922 1.60059 17.8745 1.60059C21.3016 1.60059 24.6358 2.5771 27.5168 4.4263C28.0824 4.79048 28.2482 5.54444 27.884 6.11155C27.5186 6.67865 26.7661 6.84259 26.199 6.47871C23.7128 4.88123 20.8335 4.03801 17.8745 4.03801C9.3629 4.03801 2.43742 10.9635 2.43742 19.4751C2.43742 27.9865 9.3629 34.9119 17.8745 34.9119C26.3859 34.9119 33.3114 27.9865 33.3114 19.4751C33.3114 18.9663 33.287 18.4626 33.24 17.9672C33.1751 17.296 33.6657 16.7012 34.3352 16.6363C35.0079 16.5744 35.6009 17.0621 35.6661 17.7316C35.7211 18.3052 35.7488 18.8869 35.7488 19.4751C35.7488 29.3304 27.7299 37.3494 17.8745 37.3494Z" fill="#85BB65"/>
<path d="M19.9054 23.5374C19.5936 23.5374 19.2815 23.4187 19.0443 23.1801L11.732 15.8678C11.256 15.3915 11.256 14.6197 11.732 14.1436C12.2081 13.6675 12.9799 13.6675 13.456 14.1436L19.9072 20.5948L36.9186 3.58312C37.3949 3.10706 38.1667 3.10706 38.6428 3.58312C39.1188 4.05918 39.1188 4.83099 38.6428 5.30705L20.7682 23.1816C20.5293 23.4187 20.2175 23.5374 19.9054 23.5374Z" fill="#85BB65"/>
</g>
<defs>
<clipPath id="clip0">
<rect width="39" height="39" fill="white"/>
</clipPath>
</defs>
</svg>
