<svg width="12" height="10" viewBox="0 0 12 10" fill="none" xmlns="http://www.w3.org/2000/svg">
<path d="M10.9453 0.889404H1.05469C0.473133 0.889404 0 1.36254 0 1.94409V8.05617C0 8.63772 0.473133 9.11086 1.05469 9.11086H10.9453C11.5269 9.11086 12 8.63772 12 8.05617V1.94409C12 1.36254 11.5269 0.889404 10.9453 0.889404ZM10.8077 1.59253L10.6669 1.70974L6.41845 5.24742C6.17597 5.44931 5.82398 5.44931 5.58155 5.24742L1.3331 1.70974L1.19234 1.59253H10.8077ZM0.703125 2.10014L4.16466 4.98255L0.703125 7.28629V2.10014ZM10.9453 8.40773H1.05469C0.884812 8.40773 0.742734 8.28661 0.71018 8.12622L4.72842 5.45198L5.13164 5.78775C5.38322 5.99723 5.69163 6.10197 6.00002 6.10197C6.30841 6.10197 6.6168 5.99723 6.86841 5.78775L7.27163 5.45198L11.2898 8.1262C11.2573 8.28663 11.1152 8.40773 10.9453 8.40773ZM11.2969 7.28629L7.83534 4.98258L11.2969 2.10014V7.28629Z" fill="white"/>
</svg>
