<svg width="12" height="12" viewBox="0 0 12 12" fill="none" xmlns="http://www.w3.org/2000/svg">
<path d="M11.0371 7.87663C10.3024 7.87663 9.58106 7.76172 8.89747 7.53581C8.55666 7.41959 8.16863 7.50978 7.94628 7.73634L6.597 8.75491C5.03222 7.91963 4.06834 6.95606 3.24447 5.40303L4.23306 4.08891C4.48991 3.83241 4.58203 3.45772 4.47166 3.10616C4.24478 2.41897 4.12953 1.69794 4.12953 0.962937C4.12956 0.431969 3.69759 0 3.16666 0H0.962875C0.431969 0 0 0.431969 0 0.962875C0 7.04884 4.95119 12 11.0371 12C11.5681 12 12 11.568 12 11.0371V8.8395C12 8.30859 11.568 7.87663 11.0371 7.87663ZM11.3333 11.0371C11.3333 11.2005 11.2005 11.3333 11.0371 11.3333C5.31869 11.3333 0.666688 6.68131 0.666688 0.962906C0.666688 0.7995 0.7995 0.666687 0.962906 0.666687H3.16669C3.33009 0.666687 3.46291 0.7995 3.46291 0.962906C3.46291 1.76922 3.58953 2.56056 3.83725 3.31025C3.87175 3.42094 3.84375 3.5355 3.73178 3.65206L2.58594 5.16959C2.50913 5.27147 2.49706 5.40788 2.55469 5.52147C3.48991 7.35969 4.62631 8.49609 6.47753 9.44466C6.59016 9.50356 6.72819 9.49122 6.83041 9.41406L8.38281 8.23797C8.46125 8.15953 8.57878 8.13153 8.68491 8.16766C9.43978 8.417 10.2311 8.54331 11.0371 8.54331C11.2005 8.54331 11.3333 8.67612 11.3333 8.83953V11.0371Z" fill="white"/>
</svg>
